<svg
    xmlns="http://www.w3.org/2000/svg"
    viewBox="0 0 300 300"
    id="vector">
    <g
        id="group"
        transform="translate(24 24)">
        <path
            id="part1"
            d="M 133.28 186.24 L 124.86 179.89 C 125.07 179.15 125.18 178.44 125.18 177.75 L 125.18 173.46 C 125.18 172.77 125.13 172.06 125.02 171.32 L 133.44 164.97 C 135.66 163.17 137.09 160.89 137.72 158.14 C 138.36 155.39 137.93 152.8 136.45 150.36 L 128.99 137.35 C 127.51 134.91 125.44 133.22 122.8 132.27 C 120.15 131.31 117.51 131.42 114.86 132.58 L 105.02 136.71 C 103.85 135.86 102.66 135.07 101.45 134.33 C 100.23 133.59 98.93 132.95 97.56 132.42 L 96.13 121.95 C 95.71 119.2 94.46 116.87 92.4 114.96 C 90.33 113.06 87.87 112.1 85.02 112.1 L 70.09 112.1 C 67.24 112.1 64.78 113.06 62.71 114.96 C 60.65 116.87 59.4 119.2 58.98 121.95 L 57.55 132.42 C 56.28 132.95 55.01 133.59 53.74 134.33 C 52.47 135.07 51.26 135.86 50.09 136.71 L 40.25 132.58 C 37.6 131.42 34.96 131.31 32.31 132.27 C 29.67 133.22 27.6 134.91 26.12 137.35 L 18.66 150.36 C 17.18 152.8 16.75 155.39 17.39 158.14 C 18.02 160.89 19.45 163.17 21.68 164.97 L 30.09 171.32 C 29.98 172.06 29.93 172.77 29.93 173.46 L 29.93 177.75 C 29.93 178.44 29.98 179.15 30.09 179.89 L 21.68 186.24 C 19.45 188.04 18.02 190.32 17.39 193.07 C 16.75 195.82 17.18 198.41 18.66 200.85 L 26.12 213.86 C 27.6 216.3 29.67 217.99 32.31 218.94 C 34.96 219.9 37.6 219.79 40.25 218.63 L 50.09 214.5 C 51.26 215.35 52.45 216.14 53.66 216.88 C 54.88 217.62 56.18 218.26 57.55 218.78 L 58.98 229.26 C 59.4 232.01 60.65 234.34 62.71 236.25 C 64.78 238.15 67.24 239.1 70.09 239.1 L 85.02 239.1 C 87.87 239.1 90.33 238.15 92.4 236.25 C 94.46 234.34 95.71 232.01 96.13 229.26 L 97.56 218.78 C 98.83 218.26 100.1 217.62 101.37 216.88 C 102.64 216.14 103.85 215.35 105.02 214.5 L 114.54 218.63 C 117.19 219.79 119.84 219.9 122.48 218.94 C 125.13 217.99 127.19 216.3 128.67 213.86 L 136.29 200.85 C 137.77 198.41 138.2 195.82 137.56 193.07 C 136.93 190.32 135.5 188.04 133.28 186.24 Z M 112.16 170.6 C 112.37 172.24 112.48 173.91 112.48 175.6 C 112.48 177.29 112.37 178.97 112.16 180.61 C 111.95 182.25 111.58 183.81 111.05 185.29 L 124.7 195.61 L 118.51 206.4 L 102.8 199.89 C 100.47 202.22 97.9 204.21 95.1 205.85 C 92.29 207.49 89.25 208.73 85.97 209.58 L 83.75 226.4 L 71.21 226.4 L 69.14 209.58 C 65.86 208.73 62.82 207.49 60.01 205.85 C 57.21 204.21 54.64 202.17 52.31 199.73 L 36.6 206.4 L 30.41 195.61 L 44.06 185.29 C 43.53 183.7 43.16 182.11 42.95 180.53 C 42.74 178.94 42.63 177.3 42.63 175.6 C 42.63 173.81 42.74 172.11 42.95 170.52 C 43.16 168.94 43.53 167.35 44.06 165.76 L 30.41 155.6 L 36.6 144.81 L 52.31 151.32 C 54.64 148.99 57.21 147 60.01 145.36 C 62.82 143.72 65.86 142.48 69.14 141.63 L 71.36 124.8 L 83.91 124.8 L 85.97 141.63 C 89.25 142.48 92.29 143.72 95.1 145.36 C 97.9 147 100.47 149.04 102.8 151.47 L 118.51 144.81 L 124.7 155.6 L 111.05 165.92 C 111.58 167.4 111.95 168.96 112.16 170.6 Z"
            fill="#000000"/>
        <path
            id="part2"
            d="M 100.1 175.6 C 100.1 181.74 97.93 186.98 93.59 191.32 C 89.25 195.66 84.01 197.83 77.87 197.83 C 71.73 197.83 66.36 195.66 62.08 191.32 C 57.79 186.98 55.65 181.74 55.65 175.6 C 55.65 169.46 57.79 164.23 62.08 159.89 C 66.36 155.55 71.63 153.38 77.87 153.38 C 84.11 153.38 89.25 155.55 93.59 159.89 C 97.93 164.23 100.1 169.47 100.1 175.6 Z"
            fill="#000000"/>
        <path
            id="part3"
            d="M 251.64 1.52 L 214.04 98.04 L 153.6 253.16 L 153.6 99.5 L 155.06 98.04 L 251.58 1.52 L 251.64 1.52 Z"
            fill="#000000"
            fill-opacity="0.6"
            fill-rule="evenodd"/>
        <path
            id="part4"
            d="M 153.6 98.04 L 155.06 98.04 L 153.6 99.5 L 153.6 98.04 Z"
            fill="#000000"
            fill-rule="evenodd"/>
        <path
            id="path"
            d="M 251.64 0 L 247.74 1.52 L 153.6 38.2 L 40.62 82.22 L 0 98.04 L 0 0 L 251.64 0 Z"
            fill="#000000"
            fill-rule="evenodd"/>
        <path
            id="path_1"
            d="M 251.64 1.52 L 251.64 253.16 L 153.6 253.16 L 214.04 98.04 L 251.64 1.52 Z"
            fill="#000000"
            fill-rule="evenodd"/>
        <path
            id="part5"
            d="M 251.58 1.52 L 155.06 98.04 L 0 98.04 L 40.62 82.22 L 153.6 38.2 L 247.74 1.52 L 251.58 1.52 Z"
            fill="#000000"
            fill-opacity="0.8"
            fill-rule="evenodd"/>
        <path
            id="path_2"
            d="M 251.64 0 L 251.64 1.52 L 247.74 1.52 L 251.64 0 Z"
            fill="#000000"
            fill-rule="evenodd"/>
    </g>
</svg>
